<?xml version="1.0" encoding="UTF-8" standalone="no"?>
<!-- Created with Inkscape (http://www.inkscape.org/) -->

<svg
   width="119.12866mm"
   height="3.5966823mm"
   viewBox="0 0 119.12866 3.5966823"
   version="1.1"
   id="svg5"
   xmlns="http://www.w3.org/2000/svg"
   xmlns:svg="http://www.w3.org/2000/svg">
  <defs
     id="defs2" />
  <g
     id="layer1"
     transform="translate(-80.797646,-98.390401)">
    <g
       id="Legend"
       transform="matrix(0.08466499,0,0,0.08466499,-59.095288,147.32946)"
       fill-rule="evenodd"
       stroke-linecap="square"
       stroke-linejoin="bevel">
      <g
         transform="matrix(0.99975,0,0,0.99975,2130.8,1254.6)"
         fill="#df0c01"
         font-family="'MS Shell Dlg 2'"
         font-size="34.375px"
         font-weight="400"
         stroke="#222222"
         stroke-dasharray="1.1811, 2.3622"
         stroke-width="1.1811"
         id="g826">
        <path
           d="M 29.764,15 C 29.764,23.1538 23.154,29.764 15,29.764 6.8462,29.764 0.236,23.154 0.236,15 0.236,6.8462 6.846,0.236 15,0.236 c 8.1538,0 14.764,6.61 14.764,14.764"
           fill-rule="evenodd"
           id="path824" />
      </g>
      <g
         transform="matrix(1.1808,0,0,1.1808,2116.1,1239.8)"
         fill="#161616"
         font-family="'Bookman Old Style'"
         font-size="39px"
         font-weight="100"
         id="g834">
        <text
           x="70"
           y="38.5"
           xml:space="preserve"
           id="text828" />
        <text
           x="70"
           y="113.5"
           xml:space="preserve"
           id="text830" />
        <text
           x="70"
           y="188.5"
           xml:space="preserve"
           id="text832" />
      </g>
      <g
         transform="matrix(0.99975,0,0,0.99975,2124.7,1420.8)"
         fill="#e88b00"
         font-family="'MS Shell Dlg 2'"
         font-size="34.375px"
         font-weight="400"
         stroke="#222222"
         stroke-dasharray="1.1811, 2.3622"
         stroke-width="1.1811"
         id="g838">
        <path
           d="M 29.764,15 C 29.764,23.1538 23.154,29.764 15,29.764 6.8462,29.764 0.236,23.154 0.236,15 0.236,6.8462 6.846,0.236 15,0.236 c 8.1538,0 14.764,6.61 14.764,14.764"
           fill-rule="evenodd"
           id="path836" />
      </g>
      <g
         transform="matrix(0.99975,0,0,0.99975,2123.5,1340.4)"
         fill="#905900"
         font-family="'MS Shell Dlg 2'"
         font-size="34.375px"
         font-weight="400"
         stroke="#222222"
         stroke-dasharray="1.1811, 2.3622"
         stroke-width="1.1811"
         id="g842">
        <path
           d="M 29.764,15 C 29.764,23.1538 23.154,29.764 15,29.764 6.8462,29.764 0.236,23.154 0.236,15 0.236,6.8462 6.846,0.236 15,0.236 c 8.1538,0 14.764,6.61 14.764,14.764"
           fill-rule="evenodd"
           id="path840" />
      </g>
      <g
         transform="matrix(0.99975,0,0,0.99975,2124.7,1509.4)"
         fill="#050505"
         font-family="'MS Shell Dlg 2'"
         font-size="34.375px"
         font-weight="400"
         stroke="#222222"
         stroke-dasharray="1.1811, 2.3622"
         stroke-width="1.1811"
         id="g846">
        <path
           d="M 29.764,15 C 29.764,23.1538 23.154,29.764 15,29.764 6.8462,29.764 0.236,23.154 0.236,15 0.236,6.8462 6.846,0.236 15,0.236 c 8.1538,0 14.764,6.61 14.764,14.764"
           fill-rule="evenodd"
           id="path844" />
      </g>
      <g
         transform="matrix(1.1808,0,0,1.1808,2116.1,1239.8)"
         fill="none"
         font-family="'Bookman Old Style'"
         font-size="39px"
         font-weight="100"
         stroke="#161616"
         id="g850">
        <text
           x="70"
           y="263.5"
           fill="#161616"
           font-family="'Bookman Old Style'"
           font-size="39px"
           font-weight="100"
           stroke="none"
           xml:space="preserve"
           id="text848" />
      </g>
    </g>
    <g
       id="Legend-5"
       transform="matrix(0.08466499,0,0,0.08466499,-2.0911151,-95.970955)"
       fill-rule="evenodd"
       stroke-linecap="square"
       stroke-linejoin="bevel">
      <g
         transform="matrix(0.99975,0,0,0.99975,2130.8,1254.6)"
         fill="#df0c01"
         font-family="'MS Shell Dlg 2'"
         font-size="34.375px"
         font-weight="400"
         stroke="#222222"
         stroke-dasharray="1.1811, 2.3622"
         stroke-width="1.1811"
         id="g876">
        <path
           d="M 29.764,15 C 29.764,23.1538 23.154,29.764 15,29.764 6.8462,29.764 0.236,23.154 0.236,15 0.236,6.8462 6.846,0.236 15,0.236 c 8.1538,0 14.764,6.61 14.764,14.764"
           fill-rule="evenodd"
           id="path874" />
      </g>
      <g
         transform="matrix(1.1808,0,0,1.1808,2116.1,1239.8)"
         fill="#161616"
         font-family="'Bookman Old Style'"
         font-size="39px"
         font-weight="100"
         id="g884">
        <text
           x="70"
           y="38.5"
           xml:space="preserve"
           id="text878" />
        <text
           x="70"
           y="113.5"
           xml:space="preserve"
           id="text880" />
        <text
           x="70"
           y="188.5"
           xml:space="preserve"
           id="text882" />
      </g>
      <g
         transform="matrix(0.99975,0,0,0.99975,2124.7,1420.8)"
         fill="#e88b00"
         font-family="'MS Shell Dlg 2'"
         font-size="34.375px"
         font-weight="400"
         stroke="#222222"
         stroke-dasharray="1.1811, 2.3622"
         stroke-width="1.1811"
         id="g888">
        <path
           d="M 29.764,15 C 29.764,23.1538 23.154,29.764 15,29.764 6.8462,29.764 0.236,23.154 0.236,15 0.236,6.8462 6.846,0.236 15,0.236 c 8.1538,0 14.764,6.61 14.764,14.764"
           fill-rule="evenodd"
           id="path886" />
      </g>
      <g
         transform="matrix(0.99975,0,0,0.99975,2123.5,1340.4)"
         fill="#905900"
         font-family="'MS Shell Dlg 2'"
         font-size="34.375px"
         font-weight="400"
         stroke="#222222"
         stroke-dasharray="1.1811, 2.3622"
         stroke-width="1.1811"
         id="g892">
        <path
           d="M 29.764,15 C 29.764,23.1538 23.154,29.764 15,29.764 6.8462,29.764 0.236,23.154 0.236,15 0.236,6.8462 6.846,0.236 15,0.236 c 8.1538,0 14.764,6.61 14.764,14.764"
           fill-rule="evenodd"
           id="path890" />
      </g>
      <g
         transform="matrix(0.99975,0,0,0.99975,2124.7,1509.4)"
         fill="#050505"
         font-family="'MS Shell Dlg 2'"
         font-size="34.375px"
         font-weight="400"
         stroke="#222222"
         stroke-dasharray="1.1811, 2.3622"
         stroke-width="1.1811"
         id="g896">
        <path
           d="M 29.764,15 C 29.764,23.1538 23.154,29.764 15,29.764 6.8462,29.764 0.236,23.154 0.236,15 0.236,6.8462 6.846,0.236 15,0.236 c 8.1538,0 14.764,6.61 14.764,14.764"
           fill-rule="evenodd"
           id="path894" />
      </g>
      <g
         transform="matrix(1.1808,0,0,1.1808,2116.1,1239.8)"
         fill="none"
         font-family="'Bookman Old Style'"
         font-size="39px"
         font-weight="100"
         stroke="#161616"
         id="g900">
        <text
           x="70"
           y="263.5"
           fill="#161616"
           font-family="'Bookman Old Style'"
           font-size="39px"
           font-weight="100"
           stroke="none"
           xml:space="preserve"
           id="text898" />
      </g>
    </g>
    <g
       transform="matrix(0.09997242,0,0,0.09997242,134.93495,94.089885)"
       fill="#161616"
       font-family="'Bookman Old Style'"
       font-size="39px"
       font-weight="100"
       id="g934"
       style="fill-rule:evenodd;stroke-linecap:square;stroke-linejoin:bevel">
      <text
         x="70"
         y="38.5"
         xml:space="preserve"
         id="text928" />
      <text
         x="70"
         y="113.5"
         xml:space="preserve"
         id="text930" />
      <text
         x="70"
         y="188.5"
         xml:space="preserve"
         id="text932" />
    </g>
    <g
       transform="matrix(0.09997242,0,0,0.09997242,134.93495,94.089885)"
       fill="none"
       font-family="'Bookman Old Style'"
       font-size="39px"
       font-weight="100"
       stroke="#161616"
       id="g950"
       style="fill-rule:evenodd;stroke-linecap:square;stroke-linejoin:bevel">
      <text
         x="70"
         y="263.5"
         fill="#161616"
         font-family="'Bookman Old Style'"
         font-size="39px"
         font-weight="100"
         stroke="none"
         xml:space="preserve"
         id="text948" />
    </g>
    <g
       id="Legend-0"
       transform="matrix(0.08466499,0,0,0.08466499,-233.44409,-107.7428)"
       fill="none"
       fill-rule="evenodd"
       stroke-linecap="square"
       stroke-linejoin="bevel">
      <g
         transform="matrix(0.99975,0,0,0.99975,3535.929,1835.1915)"
         fill="#df0c01"
         font-family="'MS Shell Dlg 2'"
         font-size="34.375px"
         font-weight="400"
         stroke="#222222"
         stroke-dasharray="1.1811, 2.3622"
         stroke-width="1.1811"
         id="g976">
        <path
           d="M 29.764,15 C 29.764,23.1538 23.154,29.764 15,29.764 6.8462,29.764 0.236,23.154 0.236,15 0.236,6.8462 6.846,0.236 15,0.236 c 8.1538,0 14.764,6.61 14.764,14.764"
           fill-rule="evenodd"
           id="path974" />
      </g>
      <g
         transform="matrix(1.1808,0,0,1.1808,2116.1,1239.8)"
         fill="#161616"
         font-family="'Bookman Old Style'"
         font-size="39px"
         font-weight="100"
         id="g984">
        <text
           x="70"
           y="38.5"
           xml:space="preserve"
           id="text978" />
        <text
           x="70"
           y="113.5"
           xml:space="preserve"
           id="text980" />
        <text
           x="70"
           y="188.5"
           xml:space="preserve"
           id="text982" />
      </g>
      <g
         transform="translate(2110.9,179.36)"
         font-family="'MS Shell Dlg 2'"
         font-size="34.375px"
         font-weight="400"
         stroke="#222222"
         stroke-dasharray="1.1811, 2.3622"
         stroke-width="1.1811"
         id="g998">
        <g
           transform="matrix(0.99975,0,0,0.99975,2130.8,1343.2)"
           fill="#e88b00"
           id="g988">
          <path
             d="M 29.764,15 C 29.764,23.1538 23.154,29.764 15,29.764 6.8462,29.764 0.236,23.154 0.236,15 0.236,6.8462 6.846,0.236 15,0.236 c 8.1538,0 14.764,6.61 14.764,14.764"
             fill-rule="evenodd"
             id="path986" />
        </g>
        <g
           transform="matrix(0.99975,0,0,0.99975,2130.8,1431.7)"
           fill="#905900"
           id="g992">
          <path
             d="M 29.764,15 C 29.764,23.1538 23.154,29.764 15,29.764 6.8462,29.764 0.236,23.154 0.236,15 0.236,6.8462 6.846,0.236 15,0.236 c 8.1538,0 14.764,6.61 14.764,14.764"
             fill-rule="evenodd"
             id="path990" />
        </g>
        <g
           transform="matrix(0.99975,0,0,0.99975,2130.8,1520.3)"
           fill="#050505"
           id="g996">
          <path
             d="M 29.764,15 C 29.764,23.1538 23.154,29.764 15,29.764 6.8462,29.764 0.236,23.154 0.236,15 0.236,6.8462 6.846,0.236 15,0.236 c 8.1538,0 14.764,6.61 14.764,14.764"
             fill-rule="evenodd"
             id="path994" />
        </g>
      </g>
      <g
         transform="matrix(1.1808,0,0,1.1808,2116.1,1239.8)"
         fill="none"
         font-family="'Bookman Old Style'"
         font-size="39px"
         font-weight="100"
         stroke="#161616"
         id="g1002">
        <text
           x="70"
           y="263.5"
           fill="#161616"
           font-family="'Bookman Old Style'"
           font-size="39px"
           font-weight="100"
           stroke="none"
           xml:space="preserve"
           id="text1000" />
      </g>
    </g>
    <g
       id="g29126">
      <g
         id="g29088"
         transform="translate(-2.0653686,-0.29208726)">
        <g
           transform="matrix(0.08464382,0,0,0.08464382,82.893021,99.210912)"
           fill="#df0c01"
           font-family="'MS Shell Dlg 2'"
           font-size="34.375px"
           font-weight="400"
           stroke="#222222"
           stroke-dasharray="1.1811, 2.3622"
           stroke-width="1.1811"
           id="g926"
           style="fill-rule:evenodd;stroke-linecap:square;stroke-linejoin:bevel">
          <path
             d="M 29.764,15 C 29.764,23.1538 23.154,29.764 15,29.764 6.8462,29.764 0.236,23.154 0.236,15 0.236,6.8462 6.846,0.236 15,0.236 c 8.1538,0 14.764,6.61 14.764,14.764"
             fill-rule="evenodd"
             id="path924" />
        </g>
        <text
           xml:space="preserve"
           style="font-style:normal;font-variant:normal;font-weight:normal;font-stretch:normal;font-size:3.52778px;line-height:1.25;font-family:sans-serif;-inkscape-font-specification:'sans-serif, Normal';font-variant-ligatures:normal;font-variant-caps:normal;font-variant-numeric:normal;font-variant-east-asian:normal;fill:#000000;fill-opacity:1;stroke:none;stroke-width:0.264583"
           x="86.238495"
           y="101.56948"
           id="text17053"><tspan
             id="tspan17051"
             style="font-style:normal;font-variant:normal;font-weight:normal;font-stretch:normal;font-size:3.52778px;font-family:sans-serif;-inkscape-font-specification:'sans-serif, Normal';font-variant-ligatures:normal;font-variant-caps:normal;font-variant-numeric:normal;font-variant-east-asian:normal;stroke-width:0.264583"
             x="86.238495"
             y="101.56948">přepadení</tspan></text>
      </g>
      <g
         id="g29082"
         transform="translate(21.903288,5.2850512)">
        <g
           transform="matrix(0.08464382,0,0,0.08464382,82.893021,93.633771)"
           fill="#e88b00"
           font-family="'MS Shell Dlg 2'"
           font-size="34.375px"
           font-weight="400"
           stroke="#222222"
           stroke-dasharray="1.1811, 2.3622"
           stroke-width="1.1811"
           id="g938"
           style="fill-rule:evenodd;stroke-linecap:square;stroke-linejoin:bevel">
          <path
             d="M 29.764,15 C 29.764,23.1538 23.154,29.764 15,29.764 6.8462,29.764 0.236,23.154 0.236,15 0.236,6.8462 6.846,0.236 15,0.236 c 8.1538,0 14.764,6.61 14.764,14.764"
             fill-rule="evenodd"
             id="path936" />
        </g>
        <text
           xml:space="preserve"
           style="font-style:normal;font-variant:normal;font-weight:normal;font-stretch:normal;font-size:3.52778px;line-height:1.25;font-family:sans-serif;-inkscape-font-specification:'sans-serif, Normal';font-variant-ligatures:normal;font-variant-caps:normal;font-variant-numeric:normal;font-variant-east-asian:normal;fill:#000000;fill-opacity:1;stroke:none;stroke-width:0.264583"
           x="86.252274"
           y="96.320488"
           id="text17053-8"><tspan
             style="font-style:normal;font-variant:normal;font-weight:normal;font-stretch:normal;font-size:3.52778px;font-family:sans-serif;-inkscape-font-specification:'sans-serif, Normal';font-variant-ligatures:normal;font-variant-caps:normal;font-variant-numeric:normal;font-variant-east-asian:normal;stroke-width:0.264583"
             x="86.252274"
             y="96.320488"
             id="tspan25158">útok trhavinou</tspan></text>
      </g>
      <g
         id="g29096"
         transform="translate(53.820563,11.790964)">
        <g
           transform="matrix(0.08464382,0,0,0.08464382,82.686484,87.231125)"
           fill="#905900"
           font-family="'MS Shell Dlg 2'"
           font-size="34.375px"
           font-weight="400"
           stroke="#222222"
           stroke-dasharray="1.1811, 2.3622"
           stroke-width="1.1811"
           id="g942"
           style="fill-rule:evenodd;stroke-linecap:square;stroke-linejoin:bevel">
          <path
             d="m 32.20407,13.779965 c 0,8.1538 -6.61,14.764 -14.764,14.764 -8.1537999,0 -14.7639999,-6.61 -14.7639999,-14.764 0,-8.1538001 6.61,-14.76400007 14.7639999,-14.76400007 8.1538,0 14.764,6.60999997 14.764,14.76400007"
             fill-rule="evenodd"
             id="path940" />
          <text
             xml:space="preserve"
             style="font-style:normal;font-weight:normal;font-size:125.034px;line-height:1.25;font-family:sans-serif;fill:#000000;fill-opacity:1;stroke:none;stroke-width:3.69193"
             x="-260.71503"
             y="-23.042068"
             id="text2929"><tspan
               id="tspan2927"
               style="stroke-width:3.69193"
               x="-260.71503"
               y="-23.042068" /></text>
        </g>
        <text
           xml:space="preserve"
           style="font-style:normal;font-variant:normal;font-weight:normal;font-stretch:normal;font-size:3.52778px;line-height:1.25;font-family:sans-serif;-inkscape-font-specification:'sans-serif, Normal';font-variant-ligatures:normal;font-variant-caps:normal;font-variant-numeric:normal;font-variant-east-asian:normal;fill:#000000;fill-opacity:1;stroke:none;stroke-width:0.264583"
           x="86.238495"
           y="89.814575"
           id="text17053-8-2"><tspan
             style="font-style:normal;font-variant:normal;font-weight:normal;font-stretch:normal;font-size:3.52778px;font-family:sans-serif;-inkscape-font-specification:'sans-serif, Normal';font-variant-ligatures:normal;font-variant-caps:normal;font-variant-numeric:normal;font-variant-east-asian:normal;stroke-width:0.264583"
             x="86.238495"
             y="89.814575"
             id="tspan25158-8">narušení tratě</tspan></text>
      </g>
      <g
         id="g29102"
         transform="translate(83.775753,18.14719)">
        <g
           transform="matrix(0.08464382,0,0,0.08464382,82.893021,80.771628)"
           fill="#050505"
           font-family="'MS Shell Dlg 2'"
           font-size="34.375px"
           font-weight="400"
           stroke="#222222"
           stroke-dasharray="1.1811, 2.3622"
           stroke-width="1.1811"
           id="g946"
           style="fill-rule:evenodd;stroke-linecap:square;stroke-linejoin:bevel">
          <path
             d="M 29.764,15 C 29.764,23.1538 23.154,29.764 15,29.764 6.8462,29.764 0.236,23.154 0.236,15 0.236,6.8462 6.846,0.236 15,0.236 c 8.1538,0 14.764,6.61 14.764,14.764"
             fill-rule="evenodd"
             id="path944" />
        </g>
        <text
           xml:space="preserve"
           style="font-style:normal;font-variant:normal;font-weight:normal;font-stretch:normal;font-size:3.52778px;line-height:1.25;font-family:sans-serif;-inkscape-font-specification:'sans-serif, Normal';font-variant-ligatures:normal;font-variant-caps:normal;font-variant-numeric:normal;font-variant-east-asian:normal;fill:#000000;fill-opacity:1;stroke:none;stroke-width:0.264583"
           x="86.238495"
           y="83.130203"
           id="text17053-8-2-5"><tspan
             style="font-style:normal;font-variant:normal;font-weight:normal;font-stretch:normal;font-size:3.52778px;font-family:sans-serif;-inkscape-font-specification:'sans-serif, Normal';font-variant-ligatures:normal;font-variant-caps:normal;font-variant-numeric:normal;font-variant-east-asian:normal;stroke-width:0.264583"
             x="86.238495"
             y="83.130203"
             id="tspan28312">překážka na trati</tspan></text>
      </g>
    </g>
  </g>
</svg>
